<svg width="308" height="282" viewBox="0 0 308 282" fill="none" xmlns="http://www.w3.org/2000/svg">
<rect x="2" y="56.165" width="82.5848" height="56.9551" rx="4" stroke="#88A8D3" stroke-width="3.00068" stroke-linecap="round"/>
<path d="M15.0054 87.3779H59.224M15.0054 100.383H38.4547" stroke="#88A8D3" stroke-width="3.00068" stroke-linecap="round"/>
<rect x="13.3911" y="64.707" width="15.6626" height="15.6626" rx="2" fill="#88A8D3"/>
<rect x="22.8088" y="199.225" width="82.5848" height="56.9551" rx="4" stroke="#88A8D3" stroke-width="3.00068" stroke-linecap="round"/>
<path d="M35.8142 230.438H80.0329M35.8142 243.443H59.2635" stroke="#88A8D3" stroke-width="3.00068" stroke-linecap="round"/>
<rect x="34.2" y="207.767" width="15.6626" height="15.6626" rx="2" fill="#88A8D3"/>
<rect x="223.093" y="84.7764" width="82.5848" height="56.9551" rx="4" stroke="#88A8D3" stroke-width="3.00068" stroke-linecap="round"/>
<path d="M236.099 115.989H280.317M236.099 128.995H259.548" stroke="#88A8D3" stroke-width="3.00068" stroke-linecap="round"/>
<rect x="234.484" y="93.3184" width="15.6626" height="15.6626" rx="2" fill="#88A8D3"/>
<rect x="111.246" y="115.99" width="82.5848" height="56.9551" rx="4" stroke="#D0D4E6" stroke-width="3.00068" stroke-linecap="round"/>
<path d="M124.061 147.315H168.201M124.061 157.283H147.469" stroke="#D0D4E6" stroke-width="3.00068" stroke-linecap="round"/>
<rect x="122.637" y="124.532" width="15.6626" height="15.6626" rx="2" fill="#D0D4E6"/>
<path d="M225.025 71.1017C211.761 57.8382 195.78 48.9483 178.874 44.432C151.447 37.1052 121.585 41.289 96.9394 56.9834M50.2782 128.995C47.8032 145.974 49.5722 163.452 55.585 179.716M130.754 244.687C156.717 250.186 184.394 245.576 207.486 230.857M239.934 197.924C247.864 185.062 252.702 170.835 254.45 156.306" stroke="#D9E5FF" stroke-width="3" stroke-linecap="round"/>
<path fill-rule="evenodd" clip-rule="evenodd" d="M208.36 88.4371C177.695 57.7723 127.977 57.7723 97.3124 88.4371C66.6475 119.102 66.6475 168.82 97.3124 199.484C125.733 227.905 170.518 229.985 201.334 205.725L244.584 248.975C248.307 252.698 254.343 252.698 258.066 248.975C261.79 245.252 261.79 239.216 258.066 235.493L214.791 192.217C238.849 161.409 236.705 116.783 208.36 88.4371ZM110.187 101.312C133.741 77.7576 171.931 77.7576 195.485 101.312C219.039 124.866 219.039 163.055 195.485 186.61C171.931 210.164 133.741 210.164 110.187 186.61C86.6328 163.055 86.6328 124.866 110.187 101.312Z" fill="#184680"/>
</svg>
