<svg width="24" height="25" viewBox="0 0 24 25" fill="none" xmlns="http://www.w3.org/2000/svg">
<path fill-rule="evenodd" clip-rule="evenodd" d="M7.09902 1.57031H16.9C17.917 1.57031 18.617 1.57031 19.206 1.77431C19.7565 1.96872 20.2548 2.28749 20.662 2.70582C21.0692 3.12416 21.3745 3.63079 21.554 4.18631C21.75 4.78331 21.749 5.49331 21.749 6.54631V20.6943C21.749 22.1603 20.022 23.0323 18.885 21.9913C18.8485 21.9564 18.8 21.9369 18.7495 21.9369C18.699 21.9369 18.6505 21.9564 18.614 21.9913L18.13 22.4333C17.202 23.2833 15.796 23.2833 14.868 22.4333C14.7001 22.2765 14.4788 22.1893 14.249 22.1893C14.0192 22.1893 13.798 22.2765 13.63 22.4333C12.702 23.2833 11.296 23.2833 10.368 22.4333C10.2001 22.2765 9.97882 22.1893 9.74902 22.1893C9.51922 22.1893 9.29799 22.2765 9.13002 22.4333C8.20202 23.2833 6.79602 23.2833 5.86802 22.4333L5.38502 21.9913C5.3485 21.9561 5.29975 21.9365 5.24902 21.9365C5.1983 21.9365 5.14955 21.9561 5.11302 21.9913C3.97602 23.0313 2.24902 22.1603 2.24902 20.6943V6.54731C2.24902 5.49331 2.24902 4.78331 2.44402 4.18631C2.62349 3.63075 2.92872 3.12409 3.33597 2.70574C3.74321 2.2874 4.24149 1.96865 4.79202 1.77431C5.38202 1.56931 6.08202 1.57031 7.09902 1.57031ZM7.24502 3.07031C6.02402 3.07031 5.60302 3.08031 5.28502 3.19131C4.9529 3.31008 4.6526 3.50374 4.40739 3.75728C4.16217 4.01081 3.97864 4.31742 3.87102 4.65331C3.76002 4.99231 3.75102 5.43831 3.75102 6.69031V20.6943C3.75102 20.8143 3.81002 20.8863 3.88502 20.9213C3.91924 20.9376 3.95739 20.9439 3.99502 20.9393C4.03562 20.9328 4.07309 20.9135 4.10202 20.8843C4.41494 20.5963 4.82471 20.4364 5.25002 20.4364C5.67534 20.4364 6.08511 20.5963 6.39802 20.8843L6.88102 21.3263C7.04899 21.4831 7.27022 21.5704 7.50002 21.5704C7.72982 21.5704 7.95106 21.4831 8.11902 21.3263C8.56347 20.9168 9.14569 20.6895 9.75002 20.6895C10.3544 20.6895 10.9366 20.9168 11.381 21.3263C11.549 21.4831 11.7702 21.5704 12 21.5704C12.2298 21.5704 12.4511 21.4831 12.619 21.3263C13.0635 20.9168 13.6457 20.6895 14.25 20.6895C14.8544 20.6895 15.4366 20.9168 15.881 21.3263C16.049 21.4831 16.2702 21.5704 16.5 21.5704C16.7298 21.5704 16.9511 21.4831 17.119 21.3263L17.602 20.8843C17.9149 20.5963 18.3247 20.4364 18.75 20.4364C19.1753 20.4364 19.5851 20.5963 19.898 20.8843C19.941 20.9243 19.978 20.9363 20.006 20.9393C20.0433 20.9437 20.0811 20.9374 20.115 20.9213C20.19 20.8863 20.25 20.8133 20.25 20.6943V6.69031C20.25 5.43831 20.24 4.99231 20.13 4.65331C20.0223 4.31717 19.8385 4.0104 19.5929 3.75684C19.3473 3.50328 19.0466 3.30976 18.714 3.19131C18.397 3.08131 17.976 3.07131 16.755 3.07131L7.24502 3.07031ZM6.25002 7.82031C6.25002 7.6214 6.32904 7.43063 6.46969 7.28998C6.61035 7.14933 6.80111 7.07031 7.00002 7.07031H7.50002C7.69894 7.07031 7.8897 7.14933 8.03035 7.28998C8.17101 7.43063 8.25002 7.6214 8.25002 7.82031C8.25002 8.01922 8.17101 8.20999 8.03035 8.35064C7.8897 8.49129 7.69894 8.57031 7.50002 8.57031H7.00002C6.80111 8.57031 6.61035 8.49129 6.46969 8.35064C6.32904 8.20999 6.25002 8.01922 6.25002 7.82031ZM9.75002 7.82031C9.75002 7.6214 9.82904 7.43063 9.96969 7.28998C10.1103 7.14933 10.3011 7.07031 10.5 7.07031H17C17.1989 7.07031 17.3897 7.14933 17.5304 7.28998C17.671 7.43063 17.75 7.6214 17.75 7.82031C17.75 8.01922 17.671 8.20999 17.5304 8.35064C17.3897 8.49129 17.1989 8.57031 17 8.57031H10.5C10.3011 8.57031 10.1103 8.49129 9.96969 8.35064C9.82904 8.20999 9.75002 8.01922 9.75002 7.82031ZM6.25002 11.3203C6.25002 11.1214 6.32904 10.9306 6.46969 10.79C6.61035 10.6493 6.80111 10.5703 7.00002 10.5703H7.50002C7.69894 10.5703 7.8897 10.6493 8.03035 10.79C8.17101 10.9306 8.25002 11.1214 8.25002 11.3203C8.25002 11.5192 8.17101 11.71 8.03035 11.8506C7.8897 11.9913 7.69894 12.0703 7.50002 12.0703H7.00002C6.80111 12.0703 6.61035 11.9913 6.46969 11.8506C6.32904 11.71 6.25002 11.5192 6.25002 11.3203ZM9.75002 11.3203C9.75002 11.1214 9.82904 10.9306 9.96969 10.79C10.1103 10.6493 10.3011 10.5703 10.5 10.5703H17C17.1989 10.5703 17.3897 10.6493 17.5304 10.79C17.671 10.9306 17.75 11.1214 17.75 11.3203C17.75 11.5192 17.671 11.71 17.5304 11.8506C17.3897 11.9913 17.1989 12.0703 17 12.0703H10.5C10.3011 12.0703 10.1103 11.9913 9.96969 11.8506C9.82904 11.71 9.75002 11.5192 9.75002 11.3203ZM6.25002 14.8203C6.25002 14.6214 6.32904 14.4306 6.46969 14.29C6.61035 14.1493 6.80111 14.0703 7.00002 14.0703H7.50002C7.69894 14.0703 7.8897 14.1493 8.03035 14.29C8.17101 14.4306 8.25002 14.6214 8.25002 14.8203C8.25002 15.0192 8.17101 15.21 8.03035 15.3506C7.8897 15.4913 7.69894 15.5703 7.50002 15.5703H7.00002C6.80111 15.5703 6.61035 15.4913 6.46969 15.3506C6.32904 15.21 6.25002 15.0192 6.25002 14.8203ZM9.75002 14.8203C9.75002 14.6214 9.82904 14.4306 9.96969 14.29C10.1103 14.1493 10.3011 14.0703 10.5 14.0703H17C17.1989 14.0703 17.3897 14.1493 17.5304 14.29C17.671 14.4306 17.75 14.6214 17.75 14.8203C17.75 15.0192 17.671 15.21 17.5304 15.3506C17.3897 15.4913 17.1989 15.5703 17 15.5703H10.5C10.3011 15.5703 10.1103 15.4913 9.96969 15.3506C9.82904 15.21 9.75002 15.0192 9.75002 14.8203Z" fill="#414141"/>
</svg>
