<svg width="24" height="25" viewBox="0 0 24 25" fill="none" xmlns="http://www.w3.org/2000/svg">
<path fill-rule="evenodd" clip-rule="evenodd" d="M9 1.57031C7.74022 1.57031 6.53204 2.07076 5.64124 2.96156C4.75045 3.85235 4.25 5.06053 4.25 6.32031C4.25 7.58009 4.75045 8.78827 5.64124 9.67907C6.53204 10.5699 7.74022 11.0703 9 11.0703C10.2598 11.0703 11.468 10.5699 12.3588 9.67907C13.2496 8.78827 13.75 7.58009 13.75 6.32031C13.75 5.06053 13.2496 3.85235 12.3588 2.96156C11.468 2.07076 10.2598 1.57031 9 1.57031ZM5.75 6.32031C5.75 5.45836 6.09241 4.63171 6.7019 4.02222C7.3114 3.41272 8.13805 3.07031 9 3.07031C9.86195 3.07031 10.6886 3.41272 11.2981 4.02222C11.9076 4.63171 12.25 5.45836 12.25 6.32031C12.25 7.18227 11.9076 8.00892 11.2981 8.61841C10.6886 9.2279 9.86195 9.57031 9 9.57031C8.13805 9.57031 7.3114 9.2279 6.7019 8.61841C6.09241 8.00892 5.75 7.18227 5.75 6.32031Z" fill="#2563EE"/>
<path d="M15 2.57031C14.8011 2.57031 14.6103 2.64933 14.4697 2.78998C14.329 2.93063 14.25 3.1214 14.25 3.32031C14.25 3.51922 14.329 3.70999 14.4697 3.85064C14.6103 3.99129 14.8011 4.07031 15 4.07031C15.5967 4.07031 16.169 4.30737 16.591 4.72932C17.0129 5.15128 17.25 5.72358 17.25 6.32031C17.25 6.91705 17.0129 7.48935 16.591 7.9113C16.169 8.33326 15.5967 8.57031 15 8.57031C14.8011 8.57031 14.6103 8.64933 14.4697 8.78998C14.329 8.93063 14.25 9.1214 14.25 9.32031C14.25 9.51922 14.329 9.70999 14.4697 9.85064C14.6103 9.99129 14.8011 10.0703 15 10.0703C15.9946 10.0703 16.9484 9.67522 17.6517 8.97196C18.3549 8.2687 18.75 7.31487 18.75 6.32031C18.75 5.32575 18.3549 4.37192 17.6517 3.66866C16.9484 2.9654 15.9946 2.57031 15 2.57031Z" fill="#2563EE"/>
<path fill-rule="evenodd" clip-rule="evenodd" d="M3.678 13.8403C5.078 13.0403 6.961 12.5703 9 12.5703C11.04 12.5703 12.922 13.0403 14.322 13.8403C15.7 14.6283 16.75 15.8303 16.75 17.3203C16.75 18.8103 15.7 20.0123 14.322 20.8003C12.922 21.6003 11.039 22.0703 9 22.0703C6.96 22.0703 5.078 21.6003 3.678 20.8003C2.3 20.0123 1.25 18.8103 1.25 17.3203C1.25 15.8303 2.3 14.6283 3.678 13.8403ZM4.422 15.1433C3.267 15.8033 2.75 16.6003 2.75 17.3203C2.75 18.0403 3.267 18.8373 4.422 19.4973C5.556 20.1453 7.173 20.5703 9 20.5703C10.827 20.5703 12.444 20.1453 13.578 19.4973C14.733 18.8373 15.25 18.0393 15.25 17.3203C15.25 16.6003 14.733 15.8033 13.578 15.1433C12.444 14.4953 10.827 14.0703 9 14.0703C7.173 14.0703 5.556 14.4953 4.422 15.1433Z" fill="#2563EE"/>
<path d="M18.1603 13.5871C17.9659 13.5447 17.7626 13.5812 17.5951 13.6886C17.4276 13.7961 17.3097 13.9657 17.2673 14.1601C17.2248 14.3545 17.2614 14.5578 17.3688 14.7253C17.4763 14.8927 17.6459 15.0107 17.8403 15.0531C18.6323 15.2261 19.2653 15.5251 19.6833 15.8671C20.1013 16.2091 20.2503 16.5441 20.2503 16.8201C20.2503 17.0701 20.1303 17.3651 19.7973 17.6741C19.4623 17.9851 18.9473 18.2721 18.2843 18.4721C18.1899 18.5005 18.1021 18.5471 18.0257 18.6094C17.9494 18.6718 17.8861 18.7485 17.8395 18.8353C17.7928 18.922 17.7637 19.0172 17.7538 19.1152C17.7439 19.2132 17.7534 19.3122 17.7818 19.4066C17.8101 19.5009 17.8568 19.5888 17.9191 19.6651C17.9814 19.7414 18.0582 19.8047 18.1449 19.8514C18.2317 19.898 18.3268 19.9272 18.4249 19.9371C18.5229 19.947 18.6219 19.9375 18.7163 19.9091C19.5393 19.6611 20.2743 19.2781 20.8183 18.7731C21.3643 18.2661 21.7503 17.5991 21.7503 16.8201C21.7503 15.9551 21.2763 15.2321 20.6333 14.7061C19.9893 14.1791 19.1223 13.7981 18.1603 13.5871Z" fill="#2563EE"/>
</svg>
